M48
;FILE_FORMAT=2:4
INCH,TZ
;TYPE=PLATED
T01C0.010
;TYPE=NON_PLATED
T02C0.026
T03C0.118
%
T01
X+17563Y+13687
X+16500Y+14000
X+16938Y+12188
X+17625Y+15875
X+17063Y+15188
X+16875Y+16000
X+17000Y+15500
X+17875Y+17813
X+17563Y+20313
Y+19063
X+16500Y+20000
X+17750Y+18500
Y+21750
X+16750
X+18938Y+13625
X+20875Y+13313
X+18750Y+12125
X+19937
X+20562Y+16313
X+18188
X+20063Y+15562
X+19000Y+20313
X+20625Y+19375
X+20375Y+19563
X+20125Y+19188
X+18125Y+18125
X+18750Y+21750
X+21938Y+14688
X+22313
X+22938Y+13563
X+21187Y+12125
X+22125
X+23687
X+21750Y+16375
X+22313Y+16313
Y+16688
X+22750
Y+16313
X+23312Y+17188
X+23875Y+15125
X+21500Y+15562
X+23750Y+18687
X+23438Y+20875
X+22437Y+19688
X+23750Y+21688
X+25034Y+13591
X+26250Y+14500
X+25500Y+12500
X+25688Y+16375
Y+16688
Y+17000
Y+16063
X+25750Y+15750
X+24500Y+16750
X+25313Y+15938
X+24312Y+15375
Y+15688
X+25875Y+19500
X+26750Y+20250
X+24750Y+20000
X+25500Y+19500
X+24750Y+21250
X+28000Y+14688
X+16875Y+18000
X+18438Y+17938
X+20562Y+15063
X+24312
X+21000Y+13813
X+17938Y+12188
X+21063Y+21125
X+27000Y+14500
X+24000Y+18000
T02
X+15957Y+18142
Y+15858
T03
X+15250Y+21000
X+27750
X+15250Y+13000
X+27750
T00
M30
